<?xml version="1.0" encoding="utf-8"?>
<!-- Generator: Adobe Illustrator 28.2.0, SVG Export Plug-In . SVG Version: 6.00 Build 0)  -->
<svg version="1.1" id="Layer_1" xmlns="http://www.w3.org/2000/svg" xmlns:xlink="http://www.w3.org/1999/xlink" x="0px" y="0px"
	 viewBox="0 0 196 59" style="enable-background:new 0 0 196 59;" xml:space="preserve">
<style type="text/css">
	.st0{fill:#62CD5D;}
	.st1{font-family:'Calibri-Bold';}
	.st2{font-size:36px;}
</style>
<g>
	<text transform="matrix(1 0 0 1 59.8655 37.9025)" class="st0 st1 st2">NHOM 7</text>
	<g>
		<path class="st0" d="M42.8,34.3c-8.2-3.8-17.9-3.8-28.7,0c-1,0.3-1.5,1.4-1.1,2.3c0.3,1,1.4,1.5,2.3,1.1c9.9-3.5,18.6-3.6,26-0.1
			c0.9,0.4,2,0,2.4-0.9C44.1,35.8,43.7,34.7,42.8,34.3z"/>
		<path class="st0" d="M45.2,25.3c-9.7-4.5-23-4.6-33.2-0.1c-1.2,0.5-1.7,1.9-1.2,3c0.5,1.2,1.9,1.7,3,1.2c9-3.9,21.1-3.9,29.5,0
			c1.1,0.5,2.5,0,3-1.1C46.9,27.2,46.4,25.8,45.2,25.3z"/>
		<path class="st0" d="M47.9,15c-11.6-5.2-28.8-3.8-38.7,0.5c-1.4,0.6-2,2.2-1.4,3.6c0.6,1.4,2.2,2,3.6,1.4
			c8.7-3.8,24.3-5.1,34.3-0.5l0,0c1.4,0.6,3,0,3.6-1.4C49.9,17.2,49.3,15.6,47.9,15z"/>
	</g>
</g>
</svg>
